HIERARCHY
ROOT Hips
{
  OFFSET -215.483 97.9105 -182.165
  CHANNELS 6 Xposition Yposition Zposition Zrotation Xrotation Yrotation
  JOINT ToSpine
  {
    OFFSET -0.0105055 1.38907 -7.13956
    CHANNELS 3 Zrotation Xrotation Yrotation
    JOINT Spine
    {
      OFFSET 0.0105055 10 1
      CHANNELS 3 Zrotation Xrotation Yrotation
      JOINT Spine1
      {
        OFFSET 0 12 1.60637
        CHANNELS 3 Zrotation Xrotation Yrotation
        JOINT Neck
        {
          OFFSET 0 27 2.26658
          CHANNELS 3 Zrotation Xrotation Yrotation
          JOINT Head
          {
            OFFSET 0 9 2.12705
            CHANNELS 3 Zrotation Xrotation Yrotation
            End Site
            {
              OFFSET 0 11 2
            }
          }
        }
        JOINT LeftShoulder
        {
          OFFSET 8 19.6109 2.86452
          CHANNELS 3 Zrotation Xrotation Yrotation
          JOINT LeftArm
          {
            OFFSET 12 1 0.681055
            CHANNELS 3 Zrotation Xrotation Yrotation
            JOINT LeftForeArm
            {
              OFFSET 19 0 -1.52608
              CHANNELS 3 Zrotation Xrotation Yrotation
              JOINT LeftHand
              {
                OFFSET 23 0 0
                CHANNELS 3 Zrotation Xrotation Yrotation
                End Site
                {
                  OFFSET 10 0 0
                }
              }
            }
          }
        }
        JOINT RightShoulder
        {
          OFFSET -8 19.6109 2.86452
          CHANNELS 3 Zrotation Xrotation Yrotation
          JOINT RightArm
          {
            OFFSET -12 1 0.681055
            CHANNELS 3 Zrotation Xrotation Yrotation
            JOINT RightForeArm
            {
              OFFSET -19 0 -1.52608
              CHANNELS 3 Zrotation Xrotation Yrotation
              JOINT RightHand
              {
                OFFSET -23 0 0
                CHANNELS 3 Zrotation Xrotation Yrotation
                End Site
                {
                  OFFSET -10 0 0
                }
              }
            }
          }
        }
      }
    }
  }
  JOINT LeftUpLeg
  {
    OFFSET 9 -7.17245 0
    CHANNELS 3 Zrotation Xrotation Yrotation
    JOINT LeftLeg
    {
      OFFSET 0 -44.1113 0
      CHANNELS 3 Zrotation Xrotation Yrotation
      JOINT LeftFoot
      {
        OFFSET 0 -36.1829 0
        CHANNELS 3 Zrotation Xrotation Yrotation
        JOINT LeftToeBase
        {
          OFFSET 0 -4.84184 13
          CHANNELS 3 Zrotation Xrotation Yrotation
          End Site
          {
            OFFSET 0 1 6
          }
        }
      }
    }
  }
  JOINT RightUpLeg
  {
    OFFSET -9 -7.17245 0
    CHANNELS 3 Zrotation Xrotation Yrotation
    JOINT RightLeg
    {
      OFFSET 0 -44.0551 0
      CHANNELS 3 Zrotation Xrotation Yrotation
      JOINT RightFoot
      {
        OFFSET 0 -36.1469 0
        CHANNELS 3 Zrotation Xrotation Yrotation
        JOINT RightToeBase
        {
          OFFSET 0 -4.92256 13
          CHANNELS 3 Zrotation Xrotation Yrotation
          End Site
          {
            OFFSET 0 1 6
          }
        }
      }
    }
  }
}
MOTION
Frames:	14
Frame Time:	0.0333333
-215.431 97.89 -182.179 -1.55879 3.97896 -131.507 0 0 0 4.37643 2.90352 0.554292 -8.09197 11.2988 2.63187 7.18439 36.4734 0.506491 -2.7759 4.31926 5.68783 -31.3302 3.04266 -4.62521 -33.2912 24.2058 -7.63079 -2.09718 -8.81551 -16.4026 -11.836 0.237847 -2.29977 24.4423 5.61192 14.6564 52.4969 10.0319 -0.369415 5.66207 -15.3067 18.8546 6.14523 0.467494 8.72687 2.03632 -6.0194 7.99729 -3.04204 20.1182 -5.2539 11.1692 -6.39825 0.622192 1.57222 -10.1771 -5.87647 -4.84966 -1.30036 -12.0217 3.73411 14.1263 -7.0134 -16.7624 -0.342821 -0.0496868 3.47549 -12.7044 -5.77806 
-215.285 97.8276 -182.173 -1.58899 3.56245 -131.671 0 0 0 4.25978 2.98352 0.668974 -8.24114 10.517 2.74773 7.2963 36.4725 0.349523 -3.02011 4.53512 5.65664 -32.0177 3.11974 -4.68067 -32.488 24.1655 -8.16259 -2.04296 -8.71629 -16.1141 -11.5886 -0.0105854 0.0974112 24.4626 5.48778 14.2493 52.745 10.2852 -0.347075 4.47422 -12.0166 18.5404 5.29205 0.366789 7.68272 1.58878 -6.51763 7.6387 -2.84163 20.4106 -4.88018 10.7896 -6.59649 0.623497 1.49225 -9.6017 -5.43624 -4.99713 -1.73683 -11.8496 3.39841 14.4145 -7.0631 -16.2562 -1.27319 -0.182053 3.40825 -12.3915 -5.94394 
-215.254 97.8246 -182.105 -2.04806 3.51758 -132.223 0 0 0 4.65599 3.50315 0.946801 -8.58895 9.74584 3.09861 6.59746 36.529 0.476401 -2.60925 5.24181 5.2686 -32.8253 3.24816 -4.84011 -31.9468 25.0884 -8.64316 -2.8435 -10.8203 -15.3475 -10.5324 0.0433383 -0.46747 23.6506 5.23214 13.8598 53.8779 9.89184 -0.580591 0.13842 -0.173461 19.0593 3.59041 0.132488 4.39085 0.946504 -5.98721 7.13388 -2.7202 19.884 -4.05191 11.7635 -5.98911 0.617847 1.32745 -10.1276 -4.27846 -5.3351 -1.64776 -11.8721 3.15635 14.7048 -6.10109 -15.9202 -1.62164 -0.226924 3.33092 -11.9742 -6.64789 
-214.995 97.8267 -182.459 -2.40507 3.79762 -131.901 0 0 0 3.476 3.15864 1.12206 -6.59833 10.3809 2.75895 5.60891 36.2456 0.802618 -2.5747 5.24249 4.98143 -33.638 3.34572 -4.91336 -31.6799 25.0207 -9.55203 -2.96382 -10.7687 -14.8256 -10.6163 0.0911724 -0.981235 22.7432 4.91045 13.289 54.5231 8.84375 -0.370196 0.03794 -0.0458803 19.1915 3.94091 0.159405 4.63051 1.36182 -5.49144 7.53717 -2.87504 19.9219 -4.73862 11.9853 -5.79037 0.608637 1.36297 -10.9632 -4.34987 -4.91578 -1.04372 -11.4829 2.99428 14.5818 -6.82383 -15.9313 -1.86167 -0.26062 3.32348 -11.9874 -6.0775 
-214.67 97.8361 -182.918 -2.73255 4.75343 -131.57 0 0 0 3.35246 3.5584 0.928094 -5.74876 10.4916 2.33038 5.20824 36.4243 1.17766 -2.80709 5.05838 5.20449 -34.3975 3.38845 -4.86015 -31.3358 24.965 -9.64644 -2.73134 -10.3039 -14.7032 -10.6766 0.10568 -1.1325 23.3516 5.03115 13.3645 53.8569 9.02168 -0.463051 -0.214765 0.622924 19.237 4.15983 0.159413 4.3912 2.47095 -4.77737 8.43948 -2.85906 20.6068 -6.03368 12.1163 -6.21209 0.659484 1.30559 -10.881 -3.97235 -3.84365 0.185445 -10.7253 2.80021 14.1252 -7.51569 -15.5979 -2.04765 -0.280418 3.1996 -11.4167 -6.07585 
-214.357 97.8323 -183.098 -2.65953 4.73631 -131.479 0 0 0 3.4605 3.76801 0.728538 -5.53509 9.75926 2.04908 4.32308 36.5997 1.84095 -2.55577 4.80385 5.30485 -34.9208 3.34763 -4.65024 -31.7734 24.5244 -9.3725 -2.29311 -9.2298 -14.9466 -10.5901 0.153811 -1.65905 23.2982 5.07393 13.5331 53.8251 9.47426 -0.937345 0.00437857 -0.010931 19.7392 4.3943 0.16463 4.29814 2.81963 -5.15312 8.75361 -2.77358 21.1523 -6.55869 11.5189 -6.68343 0.675084 1.26436 -10.2787 -3.83755 -3.59516 -0.125073 -10.6264 2.63815 14.6529 -7.41907 -14.5929 -2.73438 -0.348694 2.97571 -10.3665 -6.08806 
-214.097 97.8214 -183.368 -2.8682 4.9762 -131.416 0 0 0 3.64697 3.536 0.6091 -5.5861 10.15 1.95799 4.69841 35.9426 1.92074 -3.05757 5.12841 5.72711 -33.2626 3.23146 -4.70391 -32.7204 25.4596 -9.86085 -2.07614 -8.3693 -15.9776 -11.0215 0.0601309 -0.625296 24.1706 5.24384 13.6245 52.5843 10.178 -1.26397 0.511003 -1.36777 20.143 3.93711 0.170248 4.9378 3.23246 -4.85869 9.21806 -2.80653 21.2692 -7.10238 11.5046 -6.62487 0.667411 1.30389 -10.5119 -4.04334 -3.40624 0.157767 -10.7397 2.69678 14.8769 -7.4516 -13.6239 -3.52326 -0.42171 2.67734 -9.07709 -5.64292 
-213.863 97.8458 -183.66 -3.05016 5.03074 -131.676 0 0 0 3.52153 3.15831 0.606154 -5.25539 10.374 1.86883 4.72399 35.8528 1.93749 -3.86636 5.37386 5.97649 -34.317 3.45339 -5.0363 -32.9925 23.1647 -8.94598 -0.83248 -5.18053 -16.6144 -11.9214 0.0488232 -0.466114 24.3287 5.3024 13.7287 52.0151 11.1757 -1.5201 1.6385 -4.21355 20.3352 3.43868 0.144731 4.83181 3.41622 -4.47781 9.38798 -2.90284 20.8976 -6.84518 11.8649 -5.96182 0.62033 1.38487 -11.6286 -4.36465 -3.28481 0.322414 -10.7023 2.78145 14.858 -7.21751 -14.2253 -3.3834 -0.422393 2.72181 -9.24823 -5.79015 
-213.586 97.9113 -183.89 -3.11151 4.91653 -131.978 0 0 0 3.42778 3.00698 0.623234 -4.98394 10.2022 1.81306 3.88048 36.0729 2.72151 -2.79961 5.96161 6.02738 -34.945 3.53897 -5.1119 -33.3361 22.4828 -8.29828 -0.600729 -4.70007 -17.1538 -11.5332 0.050732 -0.501648 24.1037 5.49055 14.4551 52.136 10.4158 -2.10301 1.57108 -4.06959 20.4194 3.18052 0.142543 5.12348 3.3828 -4.30085 9.09521 -2.74211 20.4265 -6.3292 11.0966 -6.07276 0.590237 1.41774 -11.1355 -4.68349 -3.14745 0.204437 -10.4635 2.66762 14.8366 -7.22543 -13.9594 -3.49284 -0.427393 2.57718 -8.66733 -5.41163 
-213.355 97.9689 -184.112 -3.14389 4.74695 -132.439 0 0 0 3.69177 2.74818 0.677992 -5.44094 10.0644 1.98077 4.84434 36.1181 2.07517 -4.5089 5.27347 6.38476 -34.3329 3.52633 -5.21266 -34.2095 22.1204 -8.26736 -0.608635 -4.74656 -16.8881 -11.5438 0.0353398 -0.34973 23.8296 5.27135 13.895 53.3375 9.51771 -1.09343 1.07492 -2.75595 19.1702 3.44089 0.138884 4.56332 3.36687 -4.05491 8.94059 -2.80581 19.801 -6.06859 10.366 -6.22685 0.565622 1.29459 -10.2642 -4.0421 -3.06665 0.0722071 -10.2128 2.4549 14.7666 -6.82878 -13.1671 -3.69149 -0.426341 2.46363 -8.12325 -5.51783 
-213.102 98.029 -184.33 -3.39565 4.74879 -132.72 0 0 0 3.64451 3.18807 0.608298 -5.36144 9.53104 1.87992 4.64845 35.6794 2.24783 -4.76122 5.24306 6.49262 -34.9696 3.52603 -5.07454 -34.0697 21.7163 -7.44774 -0.272082 -3.83652 -17.5469 -12.0612 0.0417816 -0.396249 22.8167 5.03161 13.6686 54.7669 8.76327 -0.555678 0.584679 -1.25667 18.401 3.48697 0.135411 4.42807 3.2865 -3.51402 8.73585 -2.76877 19.0419 -5.59854 10.1181 -5.85148 0.517695 1.31628 -10.3508 -4.16569 -3.0193 0.396181 -10.1257 2.46177 14.4065 -6.65909 -13.2035 -3.63076 -0.42036 2.4408 -8.01412 -5.5345 
-212.911 98.093 -184.461 -3.40188 4.4931 -133.023 0 0 0 3.77828 3.25829 0.514034 -5.70767 9.16743 1.8585 4.75413 35.0043 2.34659 -4.69001 5.66333 6.61801 -34.5076 3.52856 -5.17969 -35.0352 21.8383 -7.19603 -0.370277 -4.04989 -16.9718 -11.8054 0.0565351 -0.546355 24.0868 5.45134 14.2502 53.5532 8.22891 -1.23407 0.669096 -1.56263 18.4479 3.70364 0.133523 4.26444 2.96932 -3.30315 8.21573 -2.50883 18.0864 -4.97697 10.2195 -5.13219 0.458953 1.31477 -11.0149 -4.00799 -3.07196 0.206811 -10.0564 2.43316 14.3038 -6.49457 -13.0595 -3.85597 -0.441459 2.34038 -7.58877 -5.40623 
-212.63 98.1289 -184.706 -3.40366 4.58237 -132.94 0 0 0 3.74278 3.7074 0.269042 -5.58591 8.51251 1.54845 4.35212 34.4782 2.99499 -3.83208 6.16715 6.81523 -34.8128 3.55774 -5.18533 -34.9932 22.3924 -6.9714 -0.551093 -4.47672 -16.0976 -11.9296 0.0600686 -0.574353 26.3952 6.57236 16.4606 51.3962 5.85608 -3.63105 0.512682 -1.59582 19.4031 3.75961 0.135616 4.12694 3.31451 -3.12756 8.43812 -2.41771 17.8093 -5.32748 9.20802 -5.19168 0.418176 1.34524 -10.6585 -4.29347 -2.6335 0.411296 -9.67471 2.28392 13.9843 -6.88026 -12.6098 -4.06896 -0.449745 2.23426 -7.09409 -5.43758 
-212.453 98.1607 -184.948 -3.53547 4.47941 -133.149 0 0 0 3.21353 3.83128 0.238242 -4.86587 8.28424 1.32467 3.79944 33.8144 3.46956 -3.65353 6.22882 6.90836 -35.1518 3.56714 -5.13548 -35.2705 22.6566 -6.76109 -0.793024 -4.79349 -15.4972 -11.8311 0.0405641 -0.392963 23.6238 4.88132 12.7684 53.1849 10.6667 0.034398 1.32868 -2.57647 16.8092 3.35033 0.134935 4.61132 3.28987 -2.6928 8.5082 -2.49484 17.0071 -5.22907 9.28669 -4.64598 0.377554 1.32923 -11.2908 -4.04058 -2.61864 0.380355 -9.61351 2.18602 14.1482 -6.78431 -12.2876 -4.27422 -0.460355 2.214 -7.0286 -5.34405 
